<?xml version="1.0" encoding="UTF-8" standalone="no"?>
<svg xmlns="http://www.w3.org/2000/svg" version="1.1" xmlns:xlink="http://www.w3.org/1999/xlink" xmlns:svgjs="http://svgjs.dev/svgjs" width="2000" height="1500" viewBox="0 0 2000 1500"><rect width="2000" height="1500" fill="#000000"></rect><g transform="matrix(0.75,0,0,0.75,248.56622493967438,247.38387096774193)"><svg viewBox="0 0 371 248" data-background-color="#ffffff" preserveAspectRatio="xMidYMid meet" height="1336" width="2000" xmlns="http://www.w3.org/2000/svg" xmlns:xlink="http://www.w3.org/1999/xlink"><g id="tight-bounds" transform="matrix(1,0,0,1,0.3546203649205495,0.4000000000000057)"><svg viewBox="0 0 370.2907592701589 247.2" height="247.2" width="370.2907592701589"><g><svg viewBox="0 0 370.2907592701589 247.2" height="247.2" width="370.2907592701589"><g><svg viewBox="0 0 370.2907592701589 247.2" height="247.2" width="370.2907592701589"><g id="textblocktransform"><svg viewBox="0 0 370.2907592701589 247.2" height="247.2" width="370.2907592701589" id="textblock"><g><svg viewBox="0 0 370.2907592701589 247.2" height="247.2" width="370.2907592701589"><g transform="matrix(1,0,0,1,0,0)"><svg width="370.2907592701589" viewBox="3.37 -35.23 62.13 41.48" height="247.2" data-palette-color="#4a596d"><g class="wordmark-text-0" data-fill-palette-color="primary" id="text-0"><path d="M26.32-20.14L26.32-20.14Q26.71-20.14 27.08-20.04 27.44-19.95 27.73-19.78 28.03-19.6 28.2-19.37 28.37-19.14 28.37-18.9L28.37-18.9Q28.37-18.51 27.88-18.1 27.39-17.7 26.2-17.36 25-17.02 23.01-16.8 21.02-16.58 17.99-16.58L17.99-16.58Q16.36-16.58 14.75-16.13 13.13-15.67 11.87-14.79 10.6-13.92 9.8-12.65 9.01-11.38 9.01-9.74L9.01-9.74Q9.01-8.42 9.39-7.23 9.77-6.03 10.53-5.13 11.3-4.22 12.46-3.69 13.62-3.15 15.21-3.15L15.21-3.15Q18.41-3.15 20.53-3.53 22.66-3.91 24.08-4.48 25.51-5.05 26.43-5.71 27.34-6.37 28.14-6.95 28.93-7.52 29.77-7.9 30.62-8.28 31.88-8.28L31.88-8.28Q32.91-8.28 33.5-7.78 34.08-7.28 34.08-6.35L34.08-6.35Q34.08-5.71 33.41-4.93 32.74-4.15 31.51-3.33 30.27-2.51 28.54-1.76 26.81-1 24.68-0.4 22.56 0.2 20.12 0.56 17.68 0.93 15.04 0.93L15.04 0.93Q12.62 0.93 10.5 0.28 8.37-0.37 6.79-1.66 5.2-2.95 4.28-4.9 3.37-6.84 3.37-9.45L3.37-9.45Q3.37-11.69 4.39-13.54 5.42-15.38 7.19-16.77 8.96-18.16 11.32-19.07 13.67-19.97 16.33-20.31L16.33-20.31Q14.28-21.85 13.45-23.33 12.62-24.8 12.62-26.25L12.62-26.25Q12.62-27.66 13.33-28.87 14.04-30.08 15.27-31.08 16.5-32.08 18.14-32.85 19.78-33.62 21.66-34.14 23.54-34.67 25.55-34.95 27.56-35.23 29.52-35.23L29.52-35.23Q31.52-35.23 33.31-34.81 35.11-34.4 36.52-33.52 37.94-32.64 38.84-31.3 39.75-29.96 39.94-28.13L39.94-28.13Q39.94-27.61 39.7-27.08 39.45-26.54 38.95-26.09 38.45-25.63 37.73-25.35 37.01-25.07 36.06-25.07L36.06-25.07Q35.55-25.07 35.24-25.2 34.94-25.32 34.78-25.54 34.62-25.76 34.58-26.06 34.55-26.37 34.55-26.73L34.55-26.73Q34.55-27.88 34.28-28.71 34.01-29.54 33.39-30.07 32.76-30.59 31.76-30.85 30.76-31.1 29.27-31.1L29.27-31.1Q27.49-31.1 25.56-30.73 23.63-30.35 22.02-29.63 20.41-28.91 19.37-27.91 18.33-26.9 18.33-25.66L18.33-25.66Q18.33-24.19 19.01-23.14 19.68-22.09 20.79-21.42 21.9-20.75 23.34-20.45 24.78-20.14 26.32-20.14ZM58.59-10.62L58.59-10.62Q58.49-10.5 58.24-9.85 57.98-9.2 57.61-8.23 57.25-7.25 56.82-6.04 56.39-4.83 55.94-3.58 55.49-2.32 55.08-1.11 54.66 0.1 54.33 1.07 54 2.05 53.78 2.71 53.56 3.37 53.51 3.49L53.51 3.49Q53.39 3.88 53.12 4.36 52.85 4.83 52.49 5.26 52.12 5.69 51.68 5.97 51.24 6.25 50.78 6.25L50.78 6.25Q50 6.25 49.64 5.81 49.29 5.37 49.29 4.2L49.29 4.2Q49.29 4.03 49.29 3.86 49.29 3.69 49.31 3.49L49.31 3.49Q49.34 3.1 49.68 2.03 50.02 0.95 50.5-0.4 50.97-1.76 51.52-3.21 52.07-4.66 52.51-5.81L52.51-5.81Q51.22-4.59 49.7-3.38 48.19-2.17 46.6-1.21 45.02-0.24 43.41 0.37 41.79 0.98 40.31 0.98L40.31 0.98Q38.6 0.98 37.36 0.34 36.13-0.29 35.32-1.32 34.52-2.34 34.13-3.64 33.74-4.93 33.74-6.23L33.74-6.23Q33.74-6.4 33.74-6.54 33.74-6.69 33.76-6.84L33.76-6.84Q33.91-9.18 34.56-11.65 35.2-14.11 36.25-16.55 37.3-18.99 38.68-21.33 40.06-23.66 41.68-25.73 43.31-27.81 45.14-29.55 46.97-31.3 48.9-32.56 50.83-33.81 52.79-34.52 54.76-35.23 56.69-35.23L56.69-35.23Q58.91-35.23 60.98-34.2 63.06-33.18 64.87-30.88L64.87-30.88Q65.28-30.37 65.39-29.85 65.5-29.32 65.5-28.86L65.5-28.86Q65.5-27.76 64.88-27.12 64.26-26.49 63.4-26.49L63.4-26.49Q62.62-26.49 61.95-27.19 61.28-27.88 60.45-29.17L60.45-29.17Q59.67-30.35 58.73-30.87 57.79-31.4 56.69-31.4L56.69-31.4Q54.98-31.4 53.04-30.2 51.1-29 49.19-27.04 47.29-25.07 45.54-22.55 43.8-20.02 42.45-17.37 41.11-14.72 40.32-12.15 39.52-9.57 39.52-7.52L39.52-7.52Q39.52-6.84 39.63-6.12 39.74-5.4 40.05-4.81 40.35-4.22 40.88-3.85 41.4-3.47 42.21-3.47L42.21-3.47Q43.11-3.47 44.26-3.98 45.41-4.49 46.64-5.32 47.87-6.15 49.12-7.2 50.36-8.25 51.44-9.33 52.51-10.4 53.34-11.39 54.17-12.38 54.59-13.11L54.59-13.11 56.86-18.85Q57.27-19.78 57.94-20.17 58.62-20.56 59.32-20.56L59.32-20.56Q59.67-20.56 60.01-20.46 60.35-20.36 60.62-20.15 60.89-19.95 61.04-19.62 61.2-19.29 61.2-18.85L61.2-18.85Q61.2-17.68 60.96-16.65 60.72-15.63 60.34-14.65 59.96-13.67 59.49-12.68 59.03-11.69 58.59-10.62Z" fill="#ffffff" data-fill-palette-color="primary"></path></g></svg></g></svg></g></svg></g></svg></g><g></g></svg></g><defs></defs></svg><rect width="370.2907592701589" height="247.2" fill="none" stroke="none" visibility="hidden"></rect></g></svg></g></svg>