<svg id="svg" version="1.1" xmlns="http://www.w3.org/2000/svg" xmlns:xlink="http://www.w3.org/1999/xlink" width="400" height="400" viewBox="0, 0, 400,400"><g id="svgg"><path id="path0" d="M221.730 6.176 C 215.675 8.069,211.858 14.358,213.179 20.264 C 216.327 34.329,236.054 32.596,236.725 18.195 C 237.114 9.838,229.510 3.743,221.730 6.176 M227.640 8.468 C 235.678 11.235,236.783 21.353,229.600 26.413 C 227.388 27.971,222.486 27.857,220.013 26.191 C 211.042 20.147,217.562 4.998,227.640 8.468 M148.425 11.152 C 147.380 11.444,147.299 11.770,146.032 20.800 C 145.068 27.663,144.745 29.846,144.376 31.967 C 143.778 35.411,143.877 36.800,144.720 36.800 C 145.815 36.800,146.397 35.991,146.431 34.420 C 146.509 30.812,147.153 29.902,150.208 29.082 C 151.744 28.670,153.540 28.184,154.200 28.001 C 154.860 27.818,156.350 27.408,157.510 27.090 L 159.620 26.512 161.669 29.087 C 163.312 31.151,163.885 31.618,164.559 31.437 C 165.022 31.312,165.535 31.208,165.700 31.205 C 166.165 31.197,166.055 30.514,165.494 29.929 C 165.216 29.638,164.366 28.590,163.605 27.600 C 162.843 26.610,162.121 25.710,162.000 25.600 C 161.879 25.490,161.157 24.590,160.395 23.600 C 159.634 22.610,158.829 21.592,158.606 21.338 C 158.383 21.083,156.416 18.608,154.235 15.838 C 152.054 13.067,150.074 10.818,149.835 10.840 C 149.596 10.862,148.961 11.002,148.425 11.152 M153.000 18.043 C 154.540 20.029,156.205 22.137,156.700 22.727 C 157.988 24.264,157.838 24.634,155.700 25.194 C 152.979 25.907,151.137 26.450,150.081 26.851 C 147.930 27.668,147.487 27.371,147.759 25.300 C 148.247 21.583,148.866 16.981,149.050 15.700 C 149.331 13.738,149.942 14.101,153.000 18.043 M263.862 16.331 C 262.963 17.325,263.028 18.680,264.000 19.200 C 265.161 19.822,264.998 20.265,263.185 21.409 C 261.474 22.490,261.410 23.200,263.024 23.200 C 265.874 23.200,268.566 17.695,266.496 16.100 C 265.582 15.395,264.634 15.479,263.862 16.331 M112.186 24.961 C 111.325 25.590,111.337 25.621,114.638 31.600 C 119.305 40.053,119.314 40.075,119.314 42.229 C 119.314 44.813,118.296 46.392,115.871 47.566 C 111.889 49.493,108.925 48.131,106.251 43.143 C 105.619 41.965,104.647 40.190,104.091 39.200 C 103.535 38.210,102.489 36.320,101.767 35.000 C 100.186 32.112,99.477 31.552,98.561 32.467 C 97.885 33.143,98.566 34.687,102.751 41.961 C 103.332 42.972,104.076 44.340,104.404 45.000 C 107.649 51.535,115.564 52.636,120.147 47.190 C 123.085 43.699,122.532 40.508,117.413 31.400 C 116.794 30.300,115.884 28.666,115.390 27.768 C 113.356 24.073,113.376 24.090,112.186 24.961 M292.259 28.900 C 291.951 29.395,291.022 30.970,290.195 32.400 C 289.368 33.830,288.378 35.540,287.995 36.200 C 279.885 50.191,280.411 48.249,284.155 50.386 C 284.840 50.777,286.996 52.025,288.948 53.158 C 291.726 54.772,292.615 55.119,293.048 54.760 C 293.649 54.261,293.809 52.800,293.261 52.800 C 292.894 52.800,286.772 49.268,285.283 48.197 L 284.367 47.537 285.317 45.869 C 286.371 44.016,287.407 42.223,288.843 39.761 C 294.542 29.994,294.928 29.182,294.148 28.592 C 293.130 27.821,292.907 27.857,292.259 28.900 M72.880 50.880 C 72.103 51.657,72.249 51.909,75.600 55.576 C 79.252 59.572,79.247 59.558,77.500 61.007 C 76.785 61.600,75.029 63.191,73.597 64.543 C 72.165 65.894,70.572 67.360,70.056 67.799 L 69.117 68.599 65.600 64.800 L 62.083 61.001 61.232 61.771 C 60.084 62.810,59.251 61.757,72.000 75.378 C 76.956 80.672,76.355 80.223,77.266 79.311 C 78.126 78.452,76.617 76.201,72.648 72.422 C 70.676 70.544,70.619 70.663,75.763 65.860 C 81.213 60.772,80.635 60.813,84.600 65.223 C 86.360 67.181,87.989 68.787,88.220 68.791 C 88.759 68.802,89.601 67.965,89.598 67.420 C 89.596 66.970,89.436 66.786,82.401 59.200 C 79.851 56.450,76.978 53.345,76.017 52.300 C 74.192 50.315,73.678 50.082,72.880 50.880 M323.555 53.513 C 322.145 54.991,319.284 58.090,317.196 60.399 C 315.108 62.709,312.727 65.319,311.904 66.199 C 310.112 68.117,310.081 68.381,311.500 69.604 C 312.105 70.126,314.452 72.241,316.715 74.304 C 318.979 76.368,321.036 77.988,321.287 77.904 C 322.198 77.601,322.573 76.514,321.965 75.943 C 321.647 75.644,319.636 73.809,317.496 71.864 C 313.088 67.857,313.158 68.472,316.680 64.654 C 319.497 61.600,319.014 61.431,325.973 67.904 C 327.470 69.296,327.893 69.354,328.571 68.262 C 328.933 67.679,328.378 66.990,325.000 63.832 L 321.000 60.092 321.786 59.146 C 323.496 57.087,326.190 54.400,326.545 54.400 C 326.751 54.400,328.648 55.987,330.760 57.927 C 335.189 61.995,335.315 62.084,336.164 61.759 C 337.064 61.413,336.953 60.511,335.885 59.482 C 333.860 57.531,326.972 51.329,326.559 51.086 C 326.316 50.943,324.968 52.032,323.555 53.513 M42.291 86.931 C 34.520 89.348,34.471 101.054,42.233 100.942 C 43.896 100.918,44.645 100.663,46.051 99.640 C 52.699 94.807,53.603 94.499,55.694 96.367 C 59.008 99.330,56.225 104.638,51.114 105.101 C 47.838 105.398,47.664 107.314,50.893 107.522 C 58.746 108.026,62.747 96.889,55.972 93.386 C 53.498 92.106,50.690 92.849,47.162 95.716 C 42.533 99.476,39.465 99.341,38.930 95.352 C 38.511 92.233,40.387 89.834,43.683 89.271 C 45.722 88.923,46.559 87.820,45.424 86.977 C 44.521 86.306,44.309 86.303,42.291 86.931 M355.400 88.421 C 354.740 88.607,351.230 89.319,347.600 90.002 C 343.970 90.686,340.280 91.406,339.400 91.602 C 338.520 91.798,337.131 92.065,336.314 92.195 C 334.579 92.470,334.125 92.987,334.850 93.860 C 335.367 94.483,336.427 94.471,340.800 93.789 L 342.200 93.571 345.200 98.081 C 349.731 104.893,349.490 104.134,347.888 106.547 C 345.936 109.487,345.723 111.600,347.378 111.600 C 347.501 111.600,349.791 108.072,354.127 101.200 C 355.446 99.110,357.487 95.917,358.663 94.104 C 362.047 88.885,360.889 86.870,355.400 88.421 M357.600 90.771 C 357.600 91.457,351.192 101.580,350.749 101.593 C 350.433 101.602,344.800 93.746,344.800 93.296 C 344.800 93.114,345.925 92.734,347.300 92.452 C 348.675 92.170,350.700 91.756,351.800 91.533 C 352.900 91.310,354.340 90.982,355.000 90.804 C 356.689 90.350,357.600 90.338,357.600 90.771 M198.595 98.474 C 198.485 98.764,198.441 144.630,198.498 200.400 L 198.600 301.800 200.000 301.800 L 201.400 301.800 201.400 200.000 L 201.400 98.200 200.097 98.074 C 199.291 97.997,198.718 98.149,198.595 98.474 M376.400 122.793 C 376.070 122.984,373.820 123.890,371.400 124.807 C 368.980 125.725,366.640 126.621,366.200 126.800 C 365.760 126.979,363.465 127.882,361.100 128.806 C 356.761 130.503,356.367 130.855,357.329 132.171 C 357.744 132.738,358.026 132.804,358.629 132.479 C 363.514 129.839,367.200 129.300,367.200 131.225 C 367.200 131.625,367.380 132.064,367.600 132.200 C 368.536 132.779,367.818 134.639,364.973 139.002 C 362.397 142.953,361.985 143.819,362.204 144.818 C 362.726 147.197,362.699 147.224,367.586 139.500 C 369.563 136.375,369.630 136.351,371.232 138.176 C 375.211 142.707,382.400 139.802,382.400 133.664 C 382.400 131.087,382.237 130.447,380.397 125.800 C 380.223 125.360,379.861 124.415,379.592 123.700 C 379.085 122.352,377.798 121.986,376.400 122.793 M25.200 123.657 C 19.431 125.242,15.693 130.335,16.070 136.096 C 16.870 148.341,33.949 151.659,39.168 140.583 C 43.330 131.752,34.533 121.092,25.200 123.657 M378.400 127.195 C 378.400 127.565,378.523 127.990,378.674 128.141 C 379.297 128.764,379.988 131.532,379.994 133.425 C 380.003 136.517,378.199 137.915,374.531 137.660 C 371.974 137.483,367.296 128.000,369.766 128.000 C 370.030 128.000,371.765 127.385,373.623 126.634 C 377.194 125.190,378.400 125.331,378.400 127.195 M32.653 127.221 C 41.333 132.047,38.464 144.800,28.698 144.800 C 19.038 144.800,14.731 133.591,22.211 127.919 C 25.060 125.758,29.490 125.462,32.653 127.221 M273.200 151.833 C 238.080 155.828,219.633 195.241,239.235 224.400 C 252.318 243.861,277.924 250.551,298.900 239.990 C 324.897 226.902,332.864 193.930,315.603 170.865 C 313.222 167.683,308.032 162.459,305.600 160.796 C 304.830 160.269,304.110 159.732,304.000 159.601 C 303.033 158.455,294.688 154.339,291.800 153.583 C 291.140 153.411,289.610 153.001,288.400 152.673 C 287.190 152.344,284.580 151.955,282.600 151.807 C 280.620 151.658,278.730 151.486,278.400 151.423 C 278.070 151.361,275.730 151.545,273.200 151.833 M120.596 152.900 C 120.498 153.175,120.353 171.400,120.275 193.400 C 120.120 237.016,120.249 234.563,117.830 239.847 C 115.209 245.572,109.925 249.386,103.000 250.552 L 100.200 251.024 100.089 256.960 L 99.978 262.896 103.089 262.611 C 107.148 262.238,110.031 261.503,113.496 259.957 C 114.428 259.541,115.291 259.200,115.414 259.200 C 115.536 259.200,116.933 258.321,118.518 257.247 C 126.551 251.802,130.969 243.897,132.385 232.436 C 133.140 226.322,132.940 152.939,132.167 152.643 C 130.879 152.148,120.785 152.373,120.596 152.900 M389.592 163.699 C 389.041 164.195,387.064 165.950,385.198 167.600 C 383.333 169.250,381.265 171.098,380.603 171.707 C 379.201 172.997,377.951 173.378,372.881 174.060 C 369.241 174.550,369.165 174.582,369.281 175.580 C 369.415 176.732,370.170 176.796,376.600 176.201 L 379.800 175.906 386.400 179.150 C 393.791 182.784,394.108 182.874,393.927 181.300 C 393.813 180.315,393.193 179.901,388.016 177.348 C 384.835 175.779,382.177 174.331,382.110 174.129 C 382.043 173.928,384.144 171.881,386.780 169.581 C 391.014 165.887,391.562 165.264,391.486 164.231 C 391.375 162.726,390.841 162.576,389.592 163.699 M283.800 163.777 C 288.103 164.663,289.219 164.994,291.643 166.107 C 325.180 181.505,315.014 232.769,278.400 232.886 C 273.377 232.902,272.241 232.751,267.800 231.478 C 259.834 229.195,251.709 222.211,247.669 214.173 C 242.612 204.113,242.643 193.114,247.757 182.331 C 254.140 168.874,269.684 160.872,283.800 163.777 M6.834 170.500 C 6.293 171.933,6.127 171.889,17.100 173.227 C 26.408 174.362,27.400 174.859,27.400 178.390 C 27.400 180.582,26.611 181.734,24.508 182.613 C 23.015 183.236,22.902 183.606,23.922 184.530 C 25.570 186.020,29.450 182.382,29.855 178.968 C 30.484 173.656,28.055 172.009,17.800 170.796 C 15.820 170.562,13.099 170.197,11.754 169.985 C 7.988 169.392,7.222 169.472,6.834 170.500 M359.049 241.016 C 358.515 242.408,358.969 243.092,362.128 245.652 C 363.928 247.111,367.113 249.721,369.207 251.452 C 371.301 253.183,373.544 255.016,374.192 255.524 C 375.841 256.819,375.187 257.083,369.634 257.363 C 355.397 258.081,352.800 258.496,352.800 260.049 C 352.800 260.956,354.144 261.012,361.400 260.406 C 364.040 260.185,368.871 259.793,372.136 259.534 C 378.400 259.037,378.864 258.837,378.782 256.674 C 378.766 256.242,360.464 240.755,359.649 240.483 C 359.456 240.419,359.186 240.659,359.049 241.016 M29.000 243.937 C 26.399 245.527,25.614 247.549,25.606 252.687 C 25.600 256.370,25.599 256.375,24.187 257.787 C 19.750 262.224,14.721 254.634,18.615 249.379 C 20.434 246.925,18.425 245.869,16.464 248.248 C 11.625 254.120,17.919 264.368,24.320 261.038 C 26.954 259.668,28.000 257.539,28.000 253.552 C 28.000 247.105,30.062 244.371,33.560 246.180 C 36.188 247.538,37.066 251.779,35.249 254.332 C 34.505 255.376,34.420 255.742,34.812 256.214 C 36.692 258.480,39.470 253.173,38.428 249.305 C 37.115 244.427,32.498 241.798,29.000 243.937 M343.333 279.886 C 342.877 280.719,341.209 283.532,339.627 286.138 C 336.936 290.571,336.797 290.910,337.475 291.414 C 338.194 291.947,347.019 297.326,350.164 299.147 C 351.064 299.668,352.278 300.433,352.862 300.847 C 353.446 301.261,354.076 301.604,354.262 301.609 C 354.448 301.614,355.050 301.970,355.600 302.400 C 356.150 302.830,356.710 303.186,356.843 303.191 C 357.104 303.201,360.000 298.969,360.000 298.578 C 360.000 298.449,360.540 297.559,361.200 296.600 C 361.860 295.641,362.400 294.741,362.400 294.600 C 362.400 294.459,362.955 293.538,363.633 292.552 C 364.626 291.109,364.772 290.648,364.384 290.180 C 363.377 288.967,362.590 289.650,360.077 293.916 C 356.090 300.688,356.787 300.418,351.724 297.141 C 348.765 295.224,348.618 295.852,354.024 287.299 C 354.647 286.314,354.176 285.000,353.201 285.000 C 352.744 285.000,350.966 287.612,348.707 291.600 C 347.067 294.497,347.014 294.499,342.756 291.744 L 340.026 289.978 340.760 288.689 C 341.164 287.980,342.536 285.708,343.808 283.640 C 345.592 280.739,346.028 279.734,345.717 279.240 C 345.004 278.108,344.187 278.329,343.333 279.886 M41.000 279.175 C 32.183 281.331,28.933 291.756,34.843 298.926 C 38.930 303.884,47.428 303.979,52.433 299.122 C 61.049 290.760,52.760 276.300,41.000 279.175 M48.989 282.583 C 53.996 285.550,55.076 291.997,51.302 296.406 C 45.166 303.575,34.383 300.227,34.310 291.130 C 34.251 283.733,42.663 278.834,48.989 282.583 M65.300 319.551 C 57.331 327.332,56.507 328.401,57.900 329.146 C 58.468 329.449,59.314 328.839,62.378 325.916 L 66.156 322.313 69.911 326.179 C 73.667 330.047,74.174 330.337,74.967 329.080 C 75.319 328.521,74.765 327.778,71.696 324.696 C 67.291 320.274,67.387 320.934,70.700 317.786 C 74.069 314.586,73.446 314.463,78.291 319.291 C 82.393 323.378,82.397 323.381,83.194 322.584 C 83.992 321.786,83.988 321.782,79.163 316.693 C 76.507 313.892,74.124 311.609,73.867 311.621 C 73.610 311.632,69.755 315.200,65.300 319.551 M320.975 313.547 C 318.296 314.462,316.794 315.539,313.211 319.118 L 310.222 322.103 318.560 330.251 C 323.146 334.733,327.121 338.400,327.394 338.400 C 328.018 338.400,332.988 333.131,334.163 331.225 C 339.909 321.897,331.102 310.091,320.975 313.547 M325.923 315.661 C 334.160 317.683,336.093 326.220,329.826 332.900 C 327.110 335.796,328.106 336.244,320.527 328.716 C 312.959 321.198,313.398 322.165,316.284 319.370 C 318.601 317.126,319.880 316.350,322.400 315.657 C 323.170 315.445,323.855 315.256,323.923 315.236 C 323.990 315.216,324.890 315.407,325.923 315.661 M97.867 334.267 C 97.132 335.001,97.864 335.965,100.400 337.600 C 103.867 339.836,103.869 339.764,100.272 345.296 C 93.395 355.876,92.400 357.459,92.400 357.824 C 92.400 358.213,93.981 359.363,94.193 359.128 C 94.256 359.057,96.863 355.130,99.986 350.400 C 106.642 340.319,105.633 341.058,109.334 343.555 C 112.160 345.462,112.342 345.527,112.955 344.850 C 113.975 343.723,113.828 343.554,109.294 340.644 C 106.932 339.128,103.640 337.013,101.977 335.944 C 98.960 334.004,98.370 333.763,97.867 334.267 M270.164 349.152 C 269.964 349.328,269.170 349.713,268.400 350.007 C 266.997 350.543,264.721 351.532,260.588 353.400 C 259.372 353.950,258.202 354.400,257.988 354.400 C 257.512 354.400,257.475 355.698,257.936 356.220 C 258.121 356.429,258.513 357.230,258.807 358.000 C 259.101 358.770,259.779 360.390,260.314 361.600 C 260.849 362.810,261.537 364.385,261.843 365.100 C 263.228 368.332,263.564 369.111,264.308 370.800 C 264.745 371.790,265.473 373.455,265.928 374.500 C 266.873 376.670,266.976 376.701,269.522 375.555 C 270.555 375.091,272.350 374.281,273.512 373.755 C 274.673 373.230,275.703 372.800,275.800 372.800 C 276.370 372.800,280.400 370.716,280.400 370.421 C 280.400 368.954,279.429 368.437,278.095 369.194 C 277.085 369.766,272.508 371.762,270.287 372.598 C 268.286 373.352,267.253 372.914,267.213 371.295 C 267.206 371.017,267.027 370.477,266.815 370.095 C 264.891 366.628,264.790 364.800,266.521 364.800 C 266.664 364.800,267.909 364.285,269.290 363.656 C 270.670 363.027,272.475 362.271,273.300 361.976 C 274.451 361.564,274.800 361.222,274.800 360.507 C 274.800 359.092,273.960 359.046,271.156 360.308 C 269.750 360.941,267.970 361.700,267.200 361.994 C 266.430 362.288,265.629 362.679,265.420 362.864 C 264.571 363.615,263.726 363.135,263.018 361.500 C 262.613 360.565,261.932 359.043,261.506 358.119 C 260.472 355.880,260.426 355.935,265.000 353.976 C 271.151 351.341,272.035 350.813,271.615 350.028 C 271.078 349.025,270.622 348.749,270.164 349.152 M129.285 353.107 C 129.128 353.488,129.000 359.097,129.000 365.570 L 129.000 377.341 130.053 377.623 C 131.409 377.987,131.363 378.028,134.368 373.800 C 140.261 365.508,143.222 361.600,143.613 361.600 C 143.787 361.600,143.828 366.184,143.704 371.787 L 143.478 381.974 144.565 382.387 C 146.182 383.002,146.135 383.034,148.450 379.757 C 149.633 378.083,151.230 375.845,152.000 374.785 C 160.862 362.579,160.844 362.609,159.584 362.280 C 158.294 361.943,157.952 362.202,156.106 364.913 C 155.175 366.281,153.507 368.660,152.400 370.200 C 151.293 371.740,149.625 374.119,148.694 375.487 C 145.818 379.710,145.845 379.787,146.173 368.212 L 146.462 358.004 145.405 357.602 C 143.710 356.957,143.502 357.086,141.400 360.073 C 139.147 363.273,136.872 366.421,134.151 370.100 C 133.135 371.475,132.215 372.825,132.109 373.100 C 131.307 375.163,131.098 372.808,131.243 363.348 L 131.400 353.097 130.485 352.756 C 129.782 352.494,129.503 352.576,129.285 353.107 M227.000 363.037 C 225.460 363.329,223.390 363.719,222.400 363.903 C 220.393 364.278,220.283 364.757,221.177 369.200 C 221.376 370.190,221.745 372.170,221.996 373.600 C 222.248 375.030,222.609 376.920,222.800 377.800 C 222.991 378.680,223.349 380.570,223.596 382.000 C 224.361 386.428,224.767 387.600,225.536 387.600 C 227.204 387.600,227.239 387.141,225.991 381.694 C 225.181 378.159,225.326 377.822,227.853 377.359 L 230.105 376.947 234.318 380.873 C 237.904 384.216,238.730 384.800,239.866 384.800 C 241.442 384.800,241.542 384.370,240.258 383.118 C 239.740 382.613,237.921 380.858,236.216 379.218 C 233.230 376.345,233.145 376.213,233.902 375.618 C 234.335 375.278,235.154 374.634,235.723 374.187 C 239.714 371.050,238.215 364.450,233.168 362.941 C 231.107 362.324,230.724 362.330,227.000 363.037 M232.274 365.227 C 236.142 366.692,236.381 372.108,232.651 373.765 C 227.485 376.060,225.013 375.740,224.427 372.700 C 224.162 371.325,223.769 369.408,223.552 368.441 C 223.063 366.253,223.237 366.078,226.421 365.566 C 227.828 365.339,229.059 365.074,229.157 364.977 C 229.475 364.659,231.124 364.791,232.274 365.227 M187.120 366.500 C 186.806 366.995,185.412 369.740,184.023 372.600 C 182.635 375.460,180.351 380.161,178.949 383.047 C 175.987 389.144,176.070 388.800,177.565 388.800 C 178.605 388.800,178.873 388.510,180.065 386.100 L 181.400 383.400 185.600 383.295 C 190.819 383.164,194.407 383.594,194.825 384.400 C 194.997 384.730,195.529 386.029,196.009 387.286 C 196.562 388.736,197.174 389.665,197.681 389.826 C 199.120 390.282,199.379 389.422,198.496 387.124 C 197.253 383.889,195.214 378.457,194.321 376.000 C 193.882 374.790,193.377 373.440,193.200 373.000 C 193.023 372.560,192.483 371.120,192.000 369.800 C 190.530 365.781,190.400 365.600,188.978 365.600 C 188.080 365.600,187.519 365.872,187.120 366.500 M190.006 371.294 C 190.302 372.232,190.666 373.180,190.814 373.400 C 190.963 373.620,191.182 374.160,191.302 374.600 C 191.422 375.040,191.972 376.614,192.524 378.099 C 193.076 379.583,193.382 380.887,193.204 380.997 C 192.770 381.266,183.208 380.740,183.030 380.438 C 182.953 380.307,184.145 377.626,185.680 374.480 C 188.701 368.283,188.990 368.071,190.006 371.294 " stroke="none" fill="#fffefe" fill-rule="evenodd"></path><path id="path1" d="M0.000 200.000 L 0.000 400.000 200.000 400.000 L 400.000 400.000 400.000 200.000 L 400.000 0.000 200.000 0.000 L 0.000 0.000 0.000 200.000 M228.059 6.173 C 234.043 7.989,237.009 12.104,236.725 18.195 C 236.054 32.596,216.327 34.329,213.179 20.264 C 211.270 11.732,219.790 3.663,228.059 6.173 M221.308 8.861 C 217.533 10.692,215.895 13.443,215.844 18.040 C 215.722 29.074,230.237 31.309,233.894 20.818 C 236.565 13.155,228.415 5.413,221.308 8.861 M154.235 15.838 C 156.416 18.608,158.383 21.083,158.606 21.338 C 158.829 21.592,159.634 22.610,160.395 23.600 C 161.157 24.590,161.879 25.490,162.000 25.600 C 162.121 25.710,162.843 26.610,163.605 27.600 C 164.366 28.590,165.216 29.638,165.494 29.929 C 166.055 30.514,166.165 31.197,165.700 31.205 C 165.535 31.208,165.022 31.312,164.559 31.437 C 163.885 31.618,163.312 31.151,161.669 29.087 L 159.620 26.512 157.510 27.090 C 156.350 27.408,154.860 27.818,154.200 28.001 C 153.540 28.184,151.744 28.670,150.208 29.082 C 147.153 29.902,146.509 30.812,146.431 34.420 C 146.397 35.991,145.815 36.800,144.720 36.800 C 143.877 36.800,143.778 35.411,144.376 31.967 C 144.745 29.846,145.068 27.663,146.032 20.800 C 147.434 10.808,147.334 11.069,149.835 10.840 C 150.074 10.818,152.054 13.067,154.235 15.838 M149.050 15.700 C 148.866 16.981,148.247 21.583,147.759 25.300 C 147.487 27.371,147.930 27.668,150.081 26.851 C 151.137 26.450,152.979 25.907,155.700 25.194 C 157.838 24.634,157.988 24.264,156.700 22.727 C 156.205 22.137,154.540 20.029,153.000 18.043 C 149.942 14.101,149.331 13.738,149.050 15.700 M266.496 16.100 C 268.566 17.695,265.874 23.200,263.024 23.200 C 261.410 23.200,261.474 22.490,263.185 21.409 C 264.998 20.265,265.161 19.822,264.000 19.200 C 263.028 18.680,262.963 17.325,263.862 16.331 C 264.634 15.479,265.582 15.395,266.496 16.100 M113.950 25.268 C 114.248 25.746,114.896 26.871,115.390 27.768 C 115.884 28.666,116.794 30.300,117.413 31.400 C 122.532 40.508,123.085 43.699,120.147 47.190 C 115.564 52.636,107.649 51.535,104.404 45.000 C 104.076 44.340,103.332 42.972,102.751 41.961 C 98.566 34.687,97.885 33.143,98.561 32.467 C 99.477 31.552,100.186 32.112,101.767 35.000 C 102.489 36.320,103.535 38.210,104.091 39.200 C 104.647 40.190,105.619 41.965,106.251 43.143 C 108.925 48.131,111.889 49.493,115.871 47.566 C 118.296 46.392,119.314 44.813,119.314 42.229 C 119.314 40.075,119.305 40.053,114.638 31.600 C 111.337 25.621,111.325 25.590,112.186 24.961 C 113.193 24.224,113.311 24.245,113.950 25.268 M294.148 28.592 C 294.928 29.182,294.542 29.994,288.843 39.761 C 287.407 42.223,286.371 44.016,285.317 45.869 L 284.367 47.537 285.283 48.197 C 286.772 49.268,292.894 52.800,293.261 52.800 C 293.809 52.800,293.649 54.261,293.048 54.760 C 292.615 55.119,291.726 54.772,288.948 53.158 C 286.996 52.025,284.840 50.777,284.155 50.386 C 280.411 48.249,279.885 50.191,287.995 36.200 C 288.378 35.540,289.368 33.830,290.195 32.400 C 293.067 27.435,292.871 27.625,294.148 28.592 M76.017 52.300 C 76.978 53.345,79.851 56.450,82.401 59.200 C 89.436 66.786,89.596 66.970,89.598 67.420 C 89.601 67.965,88.759 68.802,88.220 68.791 C 87.989 68.787,86.360 67.181,84.600 65.223 C 80.635 60.813,81.213 60.772,75.763 65.860 C 70.619 70.663,70.676 70.544,72.648 72.422 C 76.617 76.201,78.126 78.452,77.266 79.311 C 76.355 80.223,76.956 80.672,72.000 75.378 C 59.251 61.757,60.084 62.810,61.232 61.771 L 62.083 61.001 65.600 64.800 L 69.117 68.599 70.056 67.799 C 70.572 67.360,72.165 65.894,73.597 64.543 C 75.029 63.191,76.785 61.600,77.500 61.007 C 79.247 59.558,79.252 59.572,75.600 55.576 C 72.249 51.909,72.103 51.657,72.880 50.880 C 73.678 50.082,74.192 50.315,76.017 52.300 M330.985 54.973 C 336.563 60.050,336.800 60.294,336.800 60.939 C 336.800 62.935,335.515 62.295,330.760 57.927 C 328.648 55.987,326.751 54.400,326.545 54.400 C 326.190 54.400,323.496 57.087,321.786 59.146 L 321.000 60.092 325.000 63.832 C 328.378 66.990,328.933 67.679,328.571 68.262 C 327.893 69.354,327.470 69.296,325.973 67.904 C 319.014 61.431,319.497 61.600,316.680 64.654 C 313.158 68.472,313.088 67.857,317.496 71.864 C 319.636 73.809,321.647 75.644,321.965 75.943 C 322.573 76.514,322.198 77.601,321.287 77.904 C 321.036 77.988,318.979 76.368,316.715 74.304 C 314.452 72.241,312.105 70.126,311.500 69.604 C 310.081 68.381,310.112 68.117,311.904 66.199 C 312.727 65.319,315.108 62.709,317.196 60.399 C 323.688 53.217,326.102 50.816,326.559 51.086 C 326.802 51.229,328.793 52.978,330.985 54.973 M45.424 86.977 C 46.559 87.820,45.722 88.923,43.683 89.271 C 40.387 89.834,38.511 92.233,38.930 95.352 C 39.465 99.341,42.533 99.476,47.162 95.716 C 50.690 92.849,53.498 92.106,55.972 93.386 C 62.747 96.889,58.746 108.026,50.893 107.522 C 47.664 107.314,47.838 105.398,51.114 105.101 C 56.225 104.638,59.008 99.330,55.694 96.367 C 53.603 94.499,52.699 94.807,46.051 99.640 C 44.645 100.663,43.896 100.918,42.233 100.942 C 34.471 101.054,34.520 89.348,42.291 86.931 C 44.309 86.303,44.521 86.306,45.424 86.977 M360.243 88.700 C 361.127 89.864,360.892 90.665,358.663 94.104 C 357.487 95.917,355.446 99.110,354.127 101.200 C 349.791 108.072,347.501 111.600,347.378 111.600 C 345.723 111.600,345.936 109.487,347.888 106.547 C 349.490 104.134,349.731 104.893,345.200 98.081 L 342.200 93.571 340.800 93.789 C 336.427 94.471,335.367 94.483,334.850 93.860 C 334.125 92.987,334.579 92.470,336.314 92.195 C 337.131 92.065,338.520 91.798,339.400 91.602 C 340.280 91.406,343.970 90.686,347.600 90.002 C 351.230 89.319,354.740 88.607,355.400 88.421 C 357.534 87.818,359.667 87.941,360.243 88.700 M355.000 90.804 C 354.340 90.982,352.900 91.310,351.800 91.533 C 343.436 93.230,343.963 92.457,347.649 97.614 C 350.983 102.278,350.636 102.140,352.374 99.493 C 358.331 90.423,358.500 89.863,355.000 90.804 M201.400 200.000 L 201.400 301.800 200.000 301.800 L 198.600 301.800 198.498 200.400 C 198.441 144.630,198.485 98.764,198.595 98.474 C 198.718 98.149,199.291 97.997,200.097 98.074 L 201.400 98.200 201.400 200.000 M379.592 123.700 C 379.861 124.415,380.223 125.360,380.397 125.800 C 382.237 130.447,382.400 131.087,382.400 133.664 C 382.400 139.802,375.211 142.707,371.232 138.176 C 369.630 136.351,369.563 136.375,367.586 139.500 C 362.699 147.224,362.726 147.197,362.204 144.818 C 361.985 143.819,362.397 142.953,364.973 139.002 C 367.818 134.639,368.536 132.779,367.600 132.200 C 367.380 132.064,367.200 131.625,367.200 131.225 C 367.200 129.300,363.514 129.839,358.629 132.479 C 358.026 132.804,357.744 132.738,357.329 132.171 C 356.367 130.855,356.761 130.503,361.100 128.806 C 363.465 127.882,365.760 126.979,366.200 126.800 C 366.640 126.621,368.980 125.725,371.400 124.807 C 373.820 123.890,376.070 122.984,376.400 122.793 C 377.798 121.986,379.085 122.352,379.592 123.700 M30.600 123.742 C 44.668 127.491,42.753 147.347,28.329 147.284 C 17.311 147.236,11.929 134.566,19.647 126.847 C 22.778 123.716,26.520 122.655,30.600 123.742 M373.623 126.634 C 371.765 127.385,370.030 128.000,369.766 128.000 C 367.296 128.000,371.974 137.483,374.531 137.660 C 378.199 137.915,380.003 136.517,379.994 133.425 C 379.988 131.532,379.297 128.764,378.674 128.141 C 378.523 127.990,378.400 127.565,378.400 127.195 C 378.400 125.331,377.194 125.190,373.623 126.634 M25.182 126.255 C 20.255 127.139,16.978 134.184,19.248 139.013 C 23.665 148.410,37.765 145.812,37.765 135.600 C 37.765 129.293,32.021 125.027,25.182 126.255 M282.600 151.807 C 284.580 151.955,287.190 152.344,288.400 152.673 C 289.610 153.001,291.140 153.411,291.800 153.583 C 294.688 154.339,303.033 158.455,304.000 159.601 C 304.110 159.732,304.830 160.269,305.600 160.796 C 323.493 173.031,329.896 198.935,319.965 218.907 C 304.039 250.936,259.128 253.991,239.235 224.400 C 219.633 195.241,238.080 155.828,273.200 151.833 C 275.730 151.545,278.070 151.361,278.400 151.423 C 278.730 151.486,280.620 151.658,282.600 151.807 M132.167 152.643 C 132.940 152.939,133.140 226.322,132.385 232.436 C 130.969 243.897,126.551 251.802,118.518 257.247 C 116.933 258.321,115.536 259.200,115.414 259.200 C 115.291 259.200,114.428 259.541,113.496 259.957 C 110.031 261.503,107.148 262.238,103.089 262.611 L 99.978 262.896 100.089 256.960 L 100.200 251.024 103.000 250.552 C 109.925 249.386,115.209 245.572,117.830 239.847 C 120.249 234.563,120.120 237.016,120.275 193.400 C 120.353 171.400,120.498 153.175,120.596 152.900 C 120.785 152.373,130.879 152.148,132.167 152.643 M391.486 164.231 C 391.562 165.264,391.014 165.887,386.780 169.581 C 384.144 171.881,382.043 173.928,382.110 174.129 C 382.177 174.331,384.835 175.779,388.016 177.348 C 393.193 179.901,393.813 180.315,393.927 181.300 C 394.108 182.874,393.791 182.784,386.400 179.150 L 379.800 175.906 376.600 176.201 C 370.170 176.796,369.415 176.732,369.281 175.580 C 369.165 174.582,369.241 174.550,372.881 174.060 C 377.951 173.378,379.201 172.997,380.603 171.707 C 381.265 171.098,383.333 169.250,385.198 167.600 C 387.064 165.950,389.041 164.195,389.592 163.699 C 390.841 162.576,391.375 162.726,391.486 164.231 M272.400 163.650 C 261.231 165.912,252.353 172.642,247.757 182.331 C 245.741 186.583,245.496 187.297,244.422 192.077 C 240.855 207.945,252.158 226.994,267.800 231.478 C 272.241 232.751,273.377 232.902,278.400 232.886 C 286.265 232.861,290.554 231.600,296.800 227.476 C 319.328 212.603,316.375 177.462,291.643 166.107 C 286.226 163.620,277.838 162.549,272.400 163.650 M11.754 169.985 C 13.099 170.197,15.820 170.562,17.800 170.796 C 28.055 172.009,30.484 173.656,29.855 178.968 C 29.450 182.382,25.570 186.020,23.922 184.530 C 22.902 183.606,23.015 183.236,24.508 182.613 C 26.611 181.734,27.400 180.582,27.400 178.390 C 27.400 174.859,26.408 174.362,17.100 173.227 C 6.127 171.889,6.293 171.933,6.834 170.500 C 7.222 169.472,7.988 169.392,11.754 169.985 M369.382 248.400 C 374.542 252.690,378.772 256.413,378.782 256.674 C 378.864 258.837,378.400 259.037,372.136 259.534 C 368.871 259.793,364.040 260.185,361.400 260.406 C 354.144 261.012,352.800 260.956,352.800 260.049 C 352.800 258.496,355.397 258.081,369.634 257.363 C 375.187 257.083,375.841 256.819,374.192 255.524 C 373.544 255.016,371.301 253.183,369.207 251.452 C 367.113 249.721,363.928 247.111,362.128 245.652 C 358.969 243.092,358.515 242.408,359.049 241.016 C 359.409 240.079,359.151 239.894,369.382 248.400 M34.831 244.110 C 38.567 246.627,39.778 251.881,37.451 255.475 C 36.536 256.888,35.591 257.153,34.812 256.214 C 34.420 255.742,34.505 255.376,35.249 254.332 C 37.066 251.779,36.188 247.538,33.560 246.180 C 30.062 244.371,28.000 247.105,28.000 253.552 C 28.000 257.539,26.954 259.668,24.320 261.038 C 17.919 264.368,11.625 254.120,16.464 248.248 C 18.425 245.869,20.434 246.925,18.615 249.379 C 14.721 254.634,19.750 262.224,24.187 257.787 C 25.599 256.375,25.600 256.370,25.606 252.687 C 25.619 244.884,29.973 240.835,34.831 244.110 M345.717 279.240 C 346.028 279.734,345.592 280.739,343.808 283.640 C 342.536 285.708,341.164 287.980,340.760 288.689 L 340.026 289.978 342.756 291.744 C 347.014 294.499,347.067 294.497,348.707 291.600 C 350.966 287.612,352.744 285.000,353.201 285.000 C 354.176 285.000,354.647 286.314,354.024 287.299 C 348.618 295.852,348.765 295.224,351.724 297.141 C 356.787 300.418,356.090 300.688,360.077 293.916 C 362.590 289.650,363.377 288.967,364.384 290.180 C 364.772 290.648,364.626 291.109,363.633 292.552 C 362.955 293.538,362.400 294.459,362.400 294.600 C 362.400 294.741,361.860 295.641,361.200 296.600 C 360.540 297.559,360.000 298.449,360.000 298.578 C 360.000 298.969,357.104 303.201,356.843 303.191 C 356.710 303.186,356.150 302.830,355.600 302.400 C 355.050 301.970,354.448 301.614,354.262 301.609 C 354.076 301.604,353.446 301.261,352.862 300.847 C 352.278 300.433,351.064 299.668,350.164 299.147 C 347.019 297.326,338.194 291.947,337.475 291.414 C 336.797 290.910,336.936 290.571,339.627 286.138 C 341.209 283.532,342.877 280.719,343.333 279.886 C 344.187 278.329,345.004 278.108,345.717 279.240 M47.974 279.467 C 54.271 281.501,57.727 289.272,55.038 295.352 C 51.522 303.303,40.115 305.321,34.843 298.926 C 26.848 289.226,36.035 275.611,47.974 279.467 M42.200 281.452 C 30.940 284.300,31.965 300.118,43.413 300.166 C 51.798 300.201,56.585 290.677,51.332 284.411 C 49.528 282.258,44.918 280.764,42.200 281.452 M79.163 316.693 C 83.988 321.782,83.992 321.786,83.194 322.584 C 82.397 323.381,82.393 323.378,78.291 319.291 C 73.446 314.463,74.069 314.586,70.700 317.786 C 67.387 320.934,67.291 320.274,71.696 324.696 C 74.765 327.778,75.319 328.521,74.967 329.080 C 74.174 330.337,73.667 330.047,69.911 326.179 L 66.156 322.313 62.378 325.916 C 58.584 329.535,57.200 330.123,57.200 328.116 C 57.200 327.399,73.109 311.654,73.867 311.621 C 74.124 311.609,76.507 313.892,79.163 316.693 M326.840 313.234 C 335.174 315.893,338.529 324.137,334.163 331.225 C 332.988 333.131,328.018 338.400,327.394 338.400 C 327.121 338.400,323.146 334.733,318.560 330.251 L 310.222 322.103 313.211 319.118 C 318.668 313.668,322.719 311.919,326.840 313.234 M322.400 315.657 C 319.880 316.350,318.601 317.126,316.284 319.370 C 313.398 322.165,312.959 321.198,320.527 328.716 C 328.106 336.244,327.110 335.796,329.826 332.900 C 335.200 327.171,334.879 320.961,329.000 316.942 C 328.038 316.284,324.454 315.080,323.923 315.236 C 323.855 315.256,323.170 315.445,322.400 315.657 M101.977 335.944 C 103.640 337.013,106.932 339.128,109.294 340.644 C 113.828 343.554,113.975 343.723,112.955 344.850 C 112.342 345.527,112.160 345.462,109.334 343.555 C 105.633 341.058,106.642 340.319,99.986 350.400 C 96.863 355.130,94.256 359.057,94.193 359.128 C 93.981 359.363,92.400 358.213,92.400 357.824 C 92.400 357.459,93.395 355.876,100.272 345.296 C 103.869 339.764,103.867 339.836,100.400 337.600 C 97.864 335.965,97.132 335.001,97.867 334.267 C 98.370 333.763,98.960 334.004,101.977 335.944 M271.615 350.028 C 272.035 350.813,271.151 351.341,265.000 353.976 C 260.426 355.935,260.472 355.880,261.506 358.119 C 261.932 359.043,262.613 360.565,263.018 361.500 C 263.726 363.135,264.571 363.615,265.420 362.864 C 265.629 362.679,266.430 362.288,267.200 361.994 C 267.970 361.700,269.750 360.941,271.156 360.308 C 273.960 359.046,274.800 359.092,274.800 360.507 C 274.800 361.222,274.451 361.564,273.300 361.976 C 272.475 362.271,270.670 363.027,269.290 363.656 C 267.909 364.285,266.664 364.800,266.521 364.800 C 264.790 364.800,264.891 366.628,266.815 370.095 C 267.027 370.477,267.206 371.017,267.213 371.295 C 267.253 372.914,268.286 373.352,270.287 372.598 C 272.508 371.762,277.085 369.766,278.095 369.194 C 279.429 368.437,280.400 368.954,280.400 370.421 C 280.400 370.716,276.370 372.800,275.800 372.800 C 275.703 372.800,274.673 373.230,273.512 373.755 C 266.322 377.007,266.991 376.942,265.928 374.500 C 265.473 373.455,264.745 371.790,264.308 370.800 C 263.564 369.111,263.228 368.332,261.843 365.100 C 261.537 364.385,260.849 362.810,260.314 361.600 C 259.779 360.390,259.101 358.770,258.807 358.000 C 258.513 357.230,258.121 356.429,257.936 356.220 C 257.475 355.698,257.512 354.400,257.988 354.400 C 258.202 354.400,259.372 353.950,260.588 353.400 C 264.721 351.532,266.997 350.543,268.400 350.007 C 269.170 349.713,269.964 349.328,270.164 349.152 C 270.622 348.749,271.078 349.025,271.615 350.028 M131.243 363.348 C 131.098 372.808,131.307 375.163,132.109 373.100 C 132.215 372.825,133.135 371.475,134.151 370.100 C 136.872 366.421,139.147 363.273,141.400 360.073 C 143.502 357.086,143.710 356.957,145.405 357.602 L 146.462 358.004 146.173 368.212 C 145.845 379.787,145.818 379.710,148.694 375.487 C 149.625 374.119,151.293 371.740,152.400 370.200 C 153.507 368.660,155.175 366.281,156.106 364.913 C 157.952 362.202,158.294 361.943,159.584 362.280 C 160.844 362.609,160.862 362.579,152.000 374.785 C 151.230 375.845,149.633 378.083,148.450 379.757 C 146.135 383.034,146.182 383.002,144.565 382.387 L 143.478 381.974 143.704 371.787 C 143.828 366.184,143.787 361.600,143.613 361.600 C 143.222 361.600,140.261 365.508,134.368 373.800 C 131.363 378.028,131.409 377.987,130.053 377.623 L 129.000 377.341 129.000 365.570 C 129.000 352.812,129.068 352.227,130.485 352.756 L 131.400 353.097 131.243 363.348 M233.168 362.941 C 238.215 364.450,239.714 371.050,235.723 374.187 C 235.154 374.634,234.335 375.278,233.902 375.618 C 233.145 376.213,233.230 376.345,236.216 379.218 C 237.921 380.858,239.740 382.613,240.258 383.118 C 241.542 384.370,241.442 384.800,239.866 384.800 C 238.730 384.800,237.904 384.216,234.318 380.873 L 230.105 376.947 227.853 377.359 C 225.326 377.822,225.181 378.159,225.991 381.694 C 227.239 387.141,227.204 387.600,225.536 387.600 C 224.767 387.600,224.361 386.428,223.596 382.000 C 223.349 380.570,222.991 378.680,222.800 377.800 C 222.609 376.920,222.248 375.030,221.996 373.600 C 221.745 372.170,221.376 370.190,221.177 369.200 C 220.283 364.757,220.393 364.278,222.400 363.903 C 223.390 363.719,225.460 363.329,227.000 363.037 C 230.724 362.330,231.107 362.324,233.168 362.941 M229.157 364.977 C 229.059 365.074,227.828 365.339,226.421 365.566 C 223.237 366.078,223.063 366.253,223.552 368.441 C 223.769 369.408,224.162 371.325,224.427 372.700 C 224.973 375.532,225.434 375.718,229.523 374.760 C 233.899 373.735,235.200 372.480,235.200 369.284 C 235.200 366.444,230.815 363.318,229.157 364.977 M190.693 366.500 C 190.929 366.995,191.517 368.480,192.000 369.800 C 192.483 371.120,193.023 372.560,193.200 373.000 C 193.377 373.440,193.882 374.790,194.321 376.000 C 195.214 378.457,197.253 383.889,198.496 387.124 C 199.379 389.422,199.120 390.282,197.681 389.826 C 197.174 389.665,196.562 388.736,196.009 387.286 C 195.529 386.029,194.997 384.730,194.825 384.400 C 194.407 383.594,190.819 383.164,185.600 383.295 L 181.400 383.400 180.065 386.100 C 178.873 388.510,178.605 388.800,177.565 388.800 C 176.070 388.800,175.987 389.144,178.949 383.047 C 180.351 380.161,182.635 375.460,184.023 372.600 C 187.393 365.659,187.435 365.600,188.978 365.600 C 189.919 365.600,190.380 365.842,190.693 366.500 M185.680 374.480 C 184.145 377.626,182.953 380.307,183.030 380.438 C 183.208 380.740,192.770 381.266,193.204 380.997 C 193.382 380.887,193.076 379.583,192.524 378.099 C 191.972 376.614,191.422 375.040,191.302 374.600 C 191.182 374.160,190.963 373.620,190.814 373.400 C 190.666 373.180,190.302 372.232,190.006 371.294 C 188.990 368.071,188.701 368.283,185.680 374.480 " stroke="none" fill="#050916" fill-rule="evenodd"></path></g></svg>